# xmcd CD database file
#
# Track frame offsets:
#	150
#	19738
#	37666
#	55626
#	72344
#	97238
#	118134
#	139775
#	159780
#	178813
#	194822
#	212768
#	233194
#
# Disc length: 3335 seconds
#
# Revision: 0
# Processed by: cddbd v1.5PL3 Copyright (c) Steve Scherf et al.
# Submitted via: CDex 1.51
#
DISCID=b70d050d
DTITLE=Moon River - Dan Gibson's Solitudes
DYEAR=2000
DGENRE=New Age
TTITLE0=Moon River
TTITLE1=Stardust
TTITLE2=In a Sentimental Mood
TTITLE3=Moonlight Seranade
TTITLE4=Polkadots and Moonbeams
TTITLE5=Misty
TTITLE6=Summertime
TTITLE7=I'll be Seeing You
TTITLE8=Tenderly
TTITLE9=Mona Lisa
TTITLE10=Unforgettable
TTITLE11=The Very Thought of You
TTITLE12=The Nearness of You
EXTD=YEAR: 2000
EXTT0=
EXTT1=
EXTT2=
EXTT3=
EXTT4=
EXTT5=
EXTT6=
EXTT7=
EXTT8=
EXTT9=
EXTT10=
EXTT11=
EXTT12=
PLAYORDER=
